<svg width="195" height="72" viewBox="0 0 195 72" fill="none" xmlns="http://www.w3.org/2000/svg">
<path d="M29.8878 71.9192C28.6228 71.7307 27.6725 70.4484 27.6686 68.926C27.6686 68.926 25.059 67.3696 25.6906 59.2834C26.3221 51.1971 23.8214 47.2212 23.8214 47.2212C20.8565 42.2191 18.9048 36.4633 18.1199 30.4069C17.0637 29.8694 14.5895 32.0043 14.5895 32.0043C10.0843 34.5666 7.93864 30.7759 7.30023 29.291C7.65719 29.5966 8.61136 29.5064 11.1935 27.0905C15.4495 23.0995 18.1453 25.2437 18.1453 25.2437C20.7618 20.3837 19.888 19.5054 22.8398 14.396C25.7916 9.28663 34.9951 13.5681 35 13.5681V72L29.8878 71.9192ZM29.3347 40.5274C29.3494 40.4619 30.5223 35.2646 30.2114 34.022C30.2114 34.022 29.1523 38.3855 28.8258 37.9264C28.8258 37.9264 21.7513 35.8876 21.0462 34.658C21.0462 34.658 22.7466 39.6597 25.0933 40.4231C25.9259 40.2042 26.7742 40.0824 27.6264 40.0602C28.2225 40.0028 28.8189 40.1659 29.3347 40.5274ZM7.07566 28.7358C7.13796 28.9289 7.21034 29.117 7.29239 29.2992C7.22259 29.2313 7.16676 29.1452 7.12919 29.0476C7.09162 28.9499 7.07331 28.8433 7.07566 28.7358ZM4.624 18.7571C-3.43115 11.3618 1.48589 0 1.48589 0C2.20472 5.7008 3.61687 9.69066 7.42281 12.5493C11.523 15.6233 20.6422 15.2942 20.6422 15.2942L18.113 22.0396C17.1389 22.2109 16.1557 22.297 15.171 22.2973C11.4494 22.2973 7.79939 21.07 4.624 18.7525V18.7571Z" fill="white"/>
<path d="M152.813 72C150.551 71.9969 148.384 70.8799 146.785 68.8941C145.186 66.9082 144.286 64.2156 144.284 61.4071V19.5929C144.286 16.7844 145.186 14.0919 146.785 12.106C148.384 10.1201 150.551 9.00314 152.813 9H186.471C191.179 9.00819 194.994 13.746 195 19.5929V61.399C195.002 67.2518 191.184 71.9977 186.471 72H152.813ZM147.494 19.5929V61.399C147.496 63.1531 148.058 64.8346 149.057 66.075C150.056 67.3154 151.409 68.0136 152.822 68.0167H186.48C187.892 68.0139 189.247 67.3159 190.245 66.0754C191.244 64.835 191.807 63.1533 191.809 61.399V19.5929C191.803 15.94 189.421 12.9811 186.48 12.9742H152.819C149.877 12.9776 147.494 15.9387 147.491 19.5929H147.494ZM98.786 72C94.0781 71.993 90.2628 67.254 90.2574 61.4071V19.5929C90.2628 13.7495 94.0735 9.01162 98.7784 9H132.437C137.145 9.00819 140.96 13.746 140.965 19.5929V61.399C140.963 67.2495 137.147 71.9919 132.437 72H98.786ZM93.4491 19.5929V61.399C93.4514 63.1533 94.0139 64.835 95.0128 66.0754C96.0117 67.3159 97.366 68.0139 98.7784 68.0167H132.437C133.849 68.0136 135.203 67.3154 136.202 66.075C137.201 64.8346 137.763 63.1531 137.766 61.399V19.5929C137.763 17.8386 137.201 16.1568 136.203 14.9162C135.204 13.6755 133.849 12.9772 132.437 12.9742H98.7784C97.3652 12.9769 96.0117 13.6751 95.0128 14.9158C94.0139 16.1564 93.4514 17.8384 93.4491 19.5929ZM45.5286 72C40.8211 71.9919 37.0065 67.254 37 61.4071V19.5929C37.0065 13.746 40.8211 9.00819 45.5286 9H79.1877C81.4492 9.00314 83.6166 10.1201 85.2155 12.106C86.8144 14.0919 87.7139 16.7844 87.7162 19.5929V61.399C87.7147 67.2495 83.8979 71.993 79.1877 72H45.5286ZM40.1996 19.5918V61.399C40.2061 65.0509 42.5884 68.0097 45.5286 68.0167H79.1877C80.6001 68.0139 81.9543 67.3159 82.9533 66.0754C83.9522 64.835 84.5139 63.1533 84.517 61.399V19.5929C84.5147 17.8384 83.9522 16.1564 82.9533 14.9158C81.9543 13.6751 80.6001 12.9769 79.1877 12.9742H45.5286C44.1161 12.9769 42.7621 13.675 41.7632 14.9154C40.7644 16.1558 40.2021 17.8374 40.1996 19.5918ZM71.9374 56.485H56.8332C55.2077 56.5268 53.585 56.2972 52.009 55.8012C50.7934 55.42 49.678 54.6537 48.7721 53.5772C47.8964 52.4552 47.2664 51.0735 46.9422 49.5637C46.5223 47.6104 46.3263 45.5932 46.36 43.5719V35.1555C46.328 33.1419 46.524 31.1327 46.9422 29.1868C47.2632 27.6813 47.894 26.3056 48.7721 25.1942C49.6815 24.118 50.7948 23.3443 52.009 22.9447C53.5834 22.4358 55.2067 22.198 56.8332 22.2377H66.1344C67.7673 22.1989 69.3969 22.4367 70.9781 22.9447C72.1979 23.3397 73.3167 24.1139 74.2291 25.1942C75.1009 26.3077 75.7247 27.6836 76.0396 29.1868C76.3423 30.5997 76.5188 32.0499 76.5647 33.5109L70.7747 33.6616C70.7416 33.3158 70.6946 32.9723 70.6338 32.6324C70.5097 31.8722 70.2326 31.1629 69.8277 30.5707C69.4133 30.0433 68.8889 29.6713 68.3122 29.4974C67.5224 29.2626 66.7112 29.1559 65.8993 29.1798L57.0516 29.2274C56.2388 29.2031 55.4279 29.3108 54.6376 29.5461C54.0602 29.7149 53.534 30.0867 53.1222 30.617C52.7154 31.1941 52.4382 31.8942 52.3188 32.6463C52.1408 33.7052 52.0595 34.7856 52.0762 35.8671V42.9066C52.0606 43.9961 52.1419 45.0844 52.3188 46.1517C52.4447 46.9083 52.7219 47.6134 53.125 48.2019C53.5397 48.7287 54.0651 49.1005 54.6413 49.2752C55.4309 49.5099 56.2417 49.6167 57.0534 49.5926H69.3863C69.6476 49.6208 69.9107 49.5762 70.1563 49.4622C70.402 49.3481 70.6241 49.1674 70.8065 48.9332C71.161 48.2449 71.3188 47.4285 71.2543 46.6153V45.8816C71.2543 45.4621 71.1069 45.2477 70.8065 45.2477H59.8527C59.2975 45.2477 59.0242 44.8664 59.0242 44.1189V40.4531C59.0242 39.6986 59.304 39.3243 59.8527 39.3243H75.444C76.1902 39.3243 76.57 39.8099 76.5777 40.7869V49.0027C76.5777 51.7387 76.1787 53.6703 75.3806 54.7976C74.9727 55.3338 74.4809 55.7608 73.9353 56.0525C73.3897 56.344 72.8019 56.494 72.208 56.4931C72.1203 56.4954 72.0288 56.492 71.9364 56.485H71.9374ZM105.034 55.7746C103.817 55.3948 102.702 54.6284 101.796 53.5505C100.921 52.4283 100.292 51.0467 99.9668 49.5371C99.5472 47.5841 99.3508 45.5673 99.3844 43.5463V35.13C99.3531 33.1164 99.5488 31.1072 99.9668 29.1614C100.288 27.656 100.918 26.2801 101.796 25.1687C102.707 24.093 103.82 23.3193 105.034 22.9192C106.608 22.4116 108.232 22.1739 109.858 22.2134H121.415C123.048 22.1748 124.677 22.4123 126.257 22.9192C127.478 23.3128 128.597 24.0871 129.508 25.1687C130.38 26.2841 131.003 27.6615 131.317 29.166C131.619 30.5788 131.795 32.0286 131.842 33.4889H126.051C126.019 33.1424 125.971 32.7994 125.91 32.4586C125.786 31.6981 125.51 30.989 125.105 30.3979C124.69 29.8709 124.165 29.499 123.59 29.3248C122.8 29.0894 121.988 28.9827 121.175 29.0072H110.071C109.26 28.9828 108.449 29.0895 107.659 29.3248C107.08 29.4889 106.553 29.8623 106.143 30.3979C105.733 30.9851 105.456 31.6958 105.337 32.4586C105.162 33.5121 105.081 34.5863 105.094 35.6619V42.9982C105.081 44.0735 105.162 45.1473 105.337 46.2004C105.463 46.9568 105.74 47.6615 106.143 48.2494C106.557 48.7772 107.083 49.1492 107.659 49.3226C108.449 49.5579 109.26 49.6645 110.071 49.6413H121.175C121.988 49.6608 122.799 49.5537 123.59 49.3226C124.169 49.1596 124.697 48.786 125.105 48.2494C125.516 47.6676 125.792 46.9606 125.91 46.2004C125.969 45.8852 126.013 45.5351 126.051 45.1701V45.1875H131.842C131.798 46.6586 131.622 48.119 131.317 49.5417C131.007 51.0522 130.382 52.4347 129.505 53.5505C128.597 54.6306 127.476 55.398 126.254 55.7746C124.672 56.2648 123.043 56.4954 121.412 56.4584H109.857C109.73 56.4584 109.601 56.4584 109.474 56.4584C107.976 56.4604 106.485 56.2306 105.032 55.7746H105.034ZM177.994 56.4247H155.786C155.04 56.4247 154.667 55.9322 154.667 54.9552V23.669C154.667 22.692 155.04 22.1995 155.786 22.1995H177.328C179.893 22.1995 181.719 22.8667 182.804 24.201C183.388 25.0251 183.833 25.9867 184.113 27.0285C184.392 28.0704 184.499 29.1713 184.429 30.2659V32.6093C184.543 35.0535 183.64 37.3992 182.036 38.8236C182.89 39.4825 183.581 40.4192 184.036 41.5321C184.49 42.6448 184.691 43.8911 184.615 45.1353V47.9702C184.626 49.1569 184.512 50.3402 184.276 51.4899C184.075 52.4704 183.699 53.3813 183.175 54.1555C182.621 54.9224 181.919 55.5011 181.134 55.8371C180.198 56.2288 179.216 56.4284 178.229 56.4283C178.151 56.4283 178.073 56.4267 177.994 56.4236V56.4247ZM160.388 49.0537C160.388 49.4756 160.55 49.6889 160.876 49.6889H176.206C176.96 49.7765 177.715 49.5266 178.335 48.9843C178.8 48.3758 179.03 47.5471 178.969 46.7115V44.8455C179.018 43.9914 178.766 43.1524 178.278 42.5473C177.524 41.9284 176.621 41.655 175.722 41.7755H160.39V41.765L160.388 49.0537ZM160.388 29.5901V36.435H175.719C176.607 36.551 177.501 36.2935 178.259 35.7037C178.731 35.1462 178.977 34.3558 178.93 33.5491V31.8861C178.988 31.0609 178.748 30.2473 178.277 29.662C177.662 29.1241 176.914 28.8733 176.164 28.9539H160.874C160.549 28.9539 160.387 29.166 160.387 29.589L160.388 29.5901Z" fill="white"/>
</svg>
